<?xml version="1.0" encoding="utf-8"?>
<!-- Generator: Adobe Illustrator 22.0.1, SVG Export Plug-In . SVG Version: 6.00 Build 0)  -->
<svg version="1.1" id="Layer_1" xmlns="http://www.w3.org/2000/svg" xmlns:xlink="http://www.w3.org/1999/xlink" x="0px" y="0px"
	 viewBox="0 0 48 48" style="enable-background:new 0 0 48 48;" xml:space="preserve">
<style type="text/css">
	.st0{fill:#707070;stroke:#707070;stroke-width:0.25;stroke-linecap:round;stroke-linejoin:round;stroke-miterlimit:10;}
	.st1{fill:#333333;}
</style>
<g>
	<circle class="st0" cx="8.4" cy="12.7" r="2"/>
	<g>
		<path class="st0" d="M4.8,19.7h15.7l-2.2-6.2l-1.4,1.8l-2.5-3.6l-3.2,5C11.1,16.7,5.1,15.8,4.8,19.7z"/>
		<path class="st1" d="M22,22.7H3.4c-0.5,0-0.9-0.4-0.9-0.9v-13c0-0.5,0.4-0.9,0.9-0.9H22c0.5,0,0.9,0.4,0.9,0.9v13
			C22.9,22.3,22.5,22.7,22,22.7z M3.5,21.7h18.4V8.8H3.5V21.7z"/>
		<path class="st0" d="M27.5,19.7h15.7L41,13.5l-1.4,1.8L37,11.6l-3.2,5C33.8,16.7,27.7,15.8,27.5,19.7z"/>
		<circle class="st0" cx="31.1" cy="12.7" r="2"/>
		<path class="st1" d="M44.6,22.7H26c-0.5,0-0.9-0.4-0.9-0.9v-13c0-0.5,0.4-0.9,0.9-0.9h18.6c0.5,0,0.9,0.4,0.9,0.9v13
			C45.5,22.3,45.1,22.7,44.6,22.7z M26.1,21.7h18.4V8.8H26.1V21.7z"/>
		<path class="st0" d="M27.5,37.2h15.7L41,31l-1.4,1.8L37,29.1l-3.2,5C33.8,34.2,27.7,33.3,27.5,37.2z"/>
		<circle class="st0" cx="31.1" cy="30.2" r="2"/>
		<path class="st1" d="M44.6,40.2H26c-0.5,0-0.9-0.4-0.9-0.9v-13c0-0.5,0.4-0.9,0.9-0.9h18.6c0.5,0,0.9,0.4,0.9,0.9v13
			C45.5,39.8,45.1,40.2,44.6,40.2z M26.1,39.2h18.4V26.3H26.1V39.2z"/>
	</g>
</g>
</svg>
