<?xml version="1.0" encoding="utf-8"?>
<!-- Generator: Adobe Illustrator 16.0.4, SVG Export Plug-In . SVG Version: 6.00 Build 0)  -->
<!DOCTYPE svg PUBLIC "-//W3C//DTD SVG 1.1//EN" "http://www.w3.org/Graphics/SVG/1.1/DTD/svg11.dtd">
<svg version="1.1" id="Layer_1" xmlns="http://www.w3.org/2000/svg" xmlns:xlink="http://www.w3.org/1999/xlink" x="0px" y="0px"
	 width="48px" height="48px" viewBox="0 0 48 48" enable-background="new 0 0 48 48" xml:space="preserve">
<line fill="none" stroke="#000000" stroke-width="0.5" stroke-miterlimit="10" x1="24.875" y1="15.375" x2="36.625" y2="15.375"/>
<line fill="none" stroke="#000000" stroke-width="0.5" stroke-miterlimit="10" x1="24.875" y1="15.375" x2="36.75" y2="24.125"/>
<line fill="none" stroke="#000000" stroke-width="0.5" stroke-miterlimit="10" x1="24.875" y1="15.375" x2="36.75" y2="32.5"/>
<line fill="none" stroke="#000000" stroke-width="0.5" stroke-miterlimit="10" x1="24.75" y1="24" x2="36.625" y2="15.375"/>
<line fill="none" stroke="#000000" stroke-width="0.5" stroke-miterlimit="10" x1="24.75" y1="24" x2="36.75" y2="23.75"/>
<line fill="none" stroke="#000000" stroke-width="0.5" stroke-miterlimit="10" x1="24.375" y1="23.875" x2="36.375" y2="32.25"/>
<line fill="none" stroke="#000000" stroke-width="0.5" stroke-miterlimit="10" x1="25" y1="32.5" x2="36.75" y2="32.5"/>
<line fill="none" stroke="#000000" stroke-width="0.5" stroke-miterlimit="10" x1="25" y1="32.5" x2="36.125" y2="23.75"/>
<line fill="none" stroke="#000000" stroke-width="0.5" stroke-miterlimit="10" x1="25" y1="32.5" x2="36.375" y2="15.75"/>
<line fill="none" stroke="#000000" stroke-width="0.5" stroke-miterlimit="10" x1="12" y1="19.625" x2="25" y2="32.5"/>
<path fill="none" stroke="#000000" stroke-width="0.5" stroke-miterlimit="10" d="M24.875,15.375"/>
<path fill="none" stroke="#000000" stroke-width="0.5" stroke-miterlimit="10" d="M24.75,24"/>
<path fill="none" stroke="#000000" stroke-width="0.5" stroke-miterlimit="10" d="M24.875,15.375"/>
<path fill="none" stroke="#000000" stroke-width="0.5" stroke-miterlimit="10" d="M25,32.5"/>
<path fill="none" stroke="#000000" stroke-width="0.5" stroke-miterlimit="10" d="M24.75,24"/>
<path fill="none" stroke="#000000" stroke-width="0.5" stroke-miterlimit="10" d="M24.625,32.375"/>
<line fill="none" stroke="#000000" stroke-width="0.5" stroke-miterlimit="10" x1="12.125" y1="11" x2="24.875" y2="15.375"/>
<line fill="none" stroke="#000000" stroke-width="0.5" stroke-miterlimit="10" x1="12" y1="19.625" x2="24.75" y2="24"/>
<line fill="none" stroke="#000000" stroke-width="0.5" stroke-miterlimit="10" x1="12.25" y1="28.125" x2="25" y2="32.5"/>
<line fill="none" stroke="#000000" stroke-width="0.5" stroke-miterlimit="10" x1="12.125" y1="11" x2="24.75" y2="24"/>
<line fill="none" stroke="#000000" stroke-width="0.5" stroke-miterlimit="10" x1="12.125" y1="11" x2="25" y2="32.5"/>
<line fill="none" stroke="#000000" stroke-width="0.5" stroke-miterlimit="10" x1="12" y1="19.625" x2="24.875" y2="15.375"/>
<line fill="none" stroke="#000000" stroke-width="0.5" stroke-miterlimit="10" x1="12.25" y1="28.125" x2="24.375" y2="15.5"/>
<line fill="none" stroke="#000000" stroke-width="0.5" stroke-miterlimit="10" x1="12.375" y1="36.75" x2="25" y2="32.5"/>
<line fill="none" stroke="#000000" stroke-width="0.5" stroke-miterlimit="10" x1="12.375" y1="36.75" x2="24.75" y2="24"/>
<line fill="none" stroke="#000000" stroke-width="0.5" stroke-miterlimit="10" x1="12.375" y1="36.75" x2="24.375" y2="15.5"/>
<line fill="none" stroke="#000000" stroke-width="0.5" stroke-miterlimit="10" x1="12.875" y1="28.25" x2="24.375" y2="23.875"/>
<g>
	<g>
		<circle fill="#333333" cx="12.335" cy="19.583" r="2.999"/>
	</g>
	<g>
		<circle fill="#333333" cx="12.335" cy="36.75" r="2.999"/>
	</g>
	<g>
		<circle fill="#333333" cx="12.335" cy="11" r="2.999"/>
	</g>
	<g>
		<circle fill="#333333" cx="12.335" cy="28.167" r="2.999"/>
	</g>
</g>
<g>
	<g>
		<circle fill="#333333" cx="24.897" cy="15.333" r="2.999"/>
	</g>
	<g>
		<circle fill="#333333" cx="24.897" cy="32.5" r="2.999"/>
	</g>
	<g>
		<circle fill="#333333" cx="24.897" cy="23.917" r="2.999"/>
	</g>
</g>
<circle fill="#333333" cx="36.647" cy="15.333" r="2.999"/>
<circle fill="#333333" cx="36.647" cy="32.5" r="2.999"/>
<circle fill="#333333" cx="36.647" cy="23.917" r="2.999"/>
</svg>
