<?xml version="1.0" encoding="utf-8"?>
<!-- Generator: Adobe Illustrator 16.0.0, SVG Export Plug-In . SVG Version: 6.00 Build 0)  -->
<!DOCTYPE svg PUBLIC "-//W3C//DTD SVG 1.1//EN" "http://www.w3.org/Graphics/SVG/1.1/DTD/svg11.dtd">
<svg version="1.1" id="Layer_1" xmlns="http://www.w3.org/2000/svg" xmlns:xlink="http://www.w3.org/1999/xlink" x="0px" y="0px"
	 width="48px" height="48px" viewBox="0 0 48 48" enable-background="new 0 0 48 48" xml:space="preserve">
<path fill="#333333" stroke="#333333" stroke-width="0.25" stroke-miterlimit="10" d="M5.097,33.293c0-8.652,0-17.33,0-26.007
	C5.3,6.872,5.596,6.545,6.055,6.335c11.743,0,23.527,0,35.313,0c1.028-0.162,1.53,0.701,1.53,1.551
	c0.006,5.081,0.004,10.161,0.004,15.239c0,3.109,0.002,6.218-0.004,9.328c0,0.328-0.051,0.656-0.075,0.955
	c-0.335,0.375-0.624,0.721-1.118,0.775c-0.094,0.01-0.18,0.062-0.271,0.075c-0.101,0.015-0.203,0.005-0.304,0.005
	c-11.462,0-22.922,0-34.382,0.002c-0.575,0-1.079-0.146-1.456-0.605C5.221,33.576,5.184,33.461,5.097,33.293z M7.8,9.028
	c0,7.506,0,14.958,0,22.41c2.229,0.093,31.878,0.054,32.399-0.039c0-7.456,0-14.908,0-22.371C29.393,9.028,18.607,9.028,7.8,9.028z"
	/>
<path fill="none" d="M7.8,9.028c10.808,0,21.593,0,32.399,0c0,7.462,0,14.915,0,22.371c-0.521,0.093-30.17,0.132-32.399,0.039
	C7.8,23.986,7.8,16.534,7.8,9.028z M27.225,14.844c-1.951,3.032-3.892,6.048-5.831,9.063c-0.06-0.054-0.108-0.132-0.147-0.127
	c-0.262,0.029-0.497-0.074-0.744-0.119c-0.266-0.048-0.533-0.031-0.807-0.112c-0.28-0.083-0.605-0.003-0.908-0.022
	c-0.29-0.02-0.58-0.063-0.864-0.121c-0.328-0.069-0.614,0.13-0.925,0.121c-0.672-0.021-1.322,0.064-1.974,0.237
	c-0.53,0.143-1.066,0.256-1.562,0.499c-0.602,0.295-1.177,0.645-1.683,1.079c-0.458,0.393-0.774,0.92-1.065,1.443
	c-0.189,0.344-0.309,0.725-0.474,1.125c0,0.088,0,0.223,0,0.348c9.194,0,18.366,0,27.601,0c-1.182-3.367-2.311-6.701-3.378-10.055
	c-0.005-0.016-0.026-0.03-0.044-0.037c-0.02-0.006-0.041-0.001-0.072-0.001c-0.4,0.549-0.818,1.095-1.207,1.659
	c-0.389,0.563-0.779,1.123-1.274,1.786c-0.072-0.149-0.101-0.229-0.146-0.296c-0.472-0.72-0.914-1.462-1.429-2.149
	c-0.716-0.957-1.379-1.949-2.063-2.928C27.908,15.778,27.573,15.329,27.225,14.844z M16.267,13.287c-0.848,0-0.845,0.003-1.74,0.486
	c-0.506,0.273-0.837,0.721-1.125,1.182c-0.263,0.42-0.374,0.946-0.355,1.422c0.03,0.766,0.25,1.5,0.82,2.089
	c0.605,0.625,1.298,1.008,2.188,1.049c0.668,0.03,1.247-0.157,1.811-0.49c0.476-0.282,0.788-0.708,1.098-1.136
	c0.315-0.435,0.213-0.997,0.402-1.475c-0.173-0.465-0.093-0.994-0.366-1.431c-0.294-0.47-0.624-0.918-1.105-1.204
	C17.38,13.476,16.846,13.199,16.267,13.287z"/>
<path fill="#707070" stroke="#707070" stroke-miterlimit="10" d="M27.225,14.844c0.35,0.485,0.685,0.934,1.004,1.393
	c0.685,0.979,1.348,1.971,2.062,2.928c0.516,0.688,0.957,1.43,1.43,2.149c0.043,0.067,0.071,0.146,0.145,0.296
	c0.496-0.663,0.887-1.223,1.273-1.786c0.391-0.564,0.807-1.11,1.209-1.659c0.03,0,0.053-0.005,0.071,0.001
	c0.017,0.007,0.039,0.021,0.044,0.037c1.066,3.354,2.196,6.688,3.378,10.055c-9.233,0-18.407,0-27.601,0c0-0.125,0-0.26,0-0.348
	c0.165-0.4,0.285-0.781,0.474-1.125c0.291-0.523,0.607-1.051,1.065-1.443c0.506-0.434,1.081-0.783,1.683-1.079
	c0.496-0.243,1.032-0.356,1.562-0.499c0.652-0.173,1.302-0.259,1.974-0.237c0.312,0.009,0.598-0.19,0.925-0.121
	c0.285,0.058,0.574,0.102,0.864,0.121c0.303,0.02,0.628-0.061,0.908,0.022c0.273,0.081,0.541,0.064,0.807,0.112
	c0.247,0.045,0.482,0.148,0.744,0.119c0.039-0.005,0.088,0.073,0.147,0.127C23.333,20.892,25.271,17.876,27.225,14.844z"/>
<path fill="#707070" stroke="#707070" stroke-miterlimit="10" d="M16.267,13.287c0.58-0.088,1.114,0.189,1.627,0.493
	c0.481,0.286,0.812,0.734,1.105,1.204c0.273,0.437,0.193,0.966,0.366,1.431c-0.189,0.478-0.087,1.04-0.402,1.475
	c-0.311,0.428-0.622,0.854-1.098,1.136c-0.564,0.333-1.142,0.521-1.811,0.49c-0.89-0.041-1.583-0.424-2.188-1.049
	c-0.569-0.589-0.79-1.323-0.82-2.089c-0.019-0.477,0.092-1.002,0.355-1.422c0.288-0.461,0.619-0.909,1.125-1.182
	C15.421,13.291,15.419,13.287,16.267,13.287z"/>
<text transform="matrix(1 0 0 1 5.0962 41.3096)" fill="#5D5D5D" font-family="'Monaco'" font-size="7.0511">011000111</text>
</svg>
