<?xml version="1.0" encoding="UTF-8" standalone="no"?>
<!-- Generator: Adobe Illustrator 16.1.0, SVG Export Plug-In . SVG Version: 6.00 Build 0)  -->
<svg id="Layer_1" xmlns:rdf="http://www.w3.org/1999/02/22-rdf-syntax-ns#" xmlns="http://www.w3.org/2000/svg" enable-background="new 0 0 48 48" xml:space="preserve" height="48px" viewBox="0 0 48 48" width="48px" version="1.1" y="0px" x="0px" xmlns:cc="http://creativecommons.org/ns#" xmlns:dc="http://purl.org/dc/elements/1.1/"><metadata id="metadata3410"><rdf:RDF><cc:Work rdf:about=""><dc:format>image/svg+xml</dc:format><dc:type rdf:resource="http://purl.org/dc/dcmitype/StillImage"/><dc:title/></cc:Work></rdf:RDF></metadata><g id="g3610"><g id="g3394" transform="matrix(1.0347 0 0 1.0167 -1.9268 -2.1202)"><path id="path3396" fill="#666" d="m6 10v28h36v-28h-36zm34 26h-32v-24h32v24z"/><path id="path3398" fill="#fff" d="m8 36h32v-24h-32v24zm8.814-14.819 3.064 3.063 4.164-8.171 4.008 8.171 3.062-3.063 6.888 9.875c-0.73-0.408-1.543-0.683-2.436-0.683-1.943 0-3.885 1.554-5.824 1.554-1.943 0-3.885-1.554-5.826-1.554s-3.883 1.554-5.824 1.554c-1.939 0-3.881-1.554-5.82-1.554-0.826 0-1.582 0.235-2.27 0.59l6.814-9.782z"/><path id="path3400" fill="#666" d="m18.09 31.927c1.941 0 3.883-1.554 5.824-1.554s3.883 1.554 5.826 1.554c1.939 0 3.881-1.554 5.824-1.554 0.893 0 1.705 0.274 2.436 0.683l-6.887-9.875-3.062 3.063-4.008-8.171-4.164 8.171-3.064-3.063-6.815 9.782c0.688-0.354 1.443-0.59 2.27-0.59 1.939 0 3.88 1.554 5.82 1.554zm12.875-8.704 1.404 1.852-2.277-0.744 0.873-1.108zm-7-4.085 2.043 4.085-2.043-1.021-1.021 2.043-1.021-1.021 2.042-4.086z"/><polygon id="polygon3402" points="32.369 25.074 30.965 23.223 30.092 24.33" fill="#fff"/><polygon id="polygon3404" points="23.965 22.201 26.008 23.223 23.965 19.138 21.922 23.223 22.943 24.244" fill="#fff"/></g><g id="g4242" transform="translate(.078112 -.78112)"><polygon id="polygon4240" transform="translate(2.3434 1.8747)" stroke="#fff" points="35.576 23 28.652 32.232 31.98 32.232 31.98 39 38.904 39 38.904 32.232 42.5 32.232" stroke-width="2" fill="none"/><polygon id="polygon3600" points="35.576 23 28.652 32.232 31.98 32.232 31.98 39 38.904 39 38.904 32.232 42.5 32.232" fill="#333" transform="translate(2.3434 1.8747)"/></g></g></svg>
