<?xml version="1.0" encoding="utf-8"?>
<!-- Generator: Adobe Illustrator 16.0.0, SVG Export Plug-In . SVG Version: 6.00 Build 0)  -->
<!DOCTYPE svg PUBLIC "-//W3C//DTD SVG 1.1//EN" "http://www.w3.org/Graphics/SVG/1.1/DTD/svg11.dtd">
<svg version="1.1" id="Layer_1" xmlns="http://www.w3.org/2000/svg" xmlns:xlink="http://www.w3.org/1999/xlink" x="0px" y="0px"
	 width="48px" height="48px" viewBox="0 0 48 48" enable-background="new 0 0 48 48" xml:space="preserve">
<path fill-rule="evenodd" clip-rule="evenodd" fill="#333333" stroke="#333333" stroke-width="0.25" stroke-miterlimit="10" d="
	M1.917,36.04c0-10.107,0-20.245,0-30.382C2.155,5.174,2.5,4.792,3.036,4.548c13.718,0,27.485,0,41.254,0
	c1.201-0.189,1.788,0.818,1.789,1.812c0.007,5.935,0.004,11.871,0.004,17.803c0,3.632,0.003,7.265-0.005,10.896
	c0,0.384-0.06,0.767-0.088,1.116c-0.392,0.438-0.729,0.842-1.307,0.905c-0.108,0.012-0.21,0.073-0.318,0.09
	c-0.116,0.016-0.237,0.004-0.354,0.004c-13.39,0-26.778,0-40.166,0.003c-0.671,0-1.261-0.172-1.701-0.708
	C2.062,36.371,2.019,36.236,1.917,36.04z M5.075,7.693c0,8.769,0,17.474,0,26.179c2.604,0.107,37.241,0.062,37.85-0.045
	c0-8.71,0-17.417,0-26.134C30.3,7.693,17.701,7.693,5.075,7.693z"/>
<path fill-rule="evenodd" clip-rule="evenodd" fill="none" d="M5.075,7.693c12.626,0,25.225,0,37.85,0c0,8.717,0,17.424,0,26.134
	c-0.609,0.107-35.246,0.152-37.85,0.045C5.075,25.167,5.075,16.461,5.075,7.693z M27.767,14.488
	c-2.28,3.542-4.545,7.065-6.811,10.588c-0.07-0.062-0.127-0.154-0.172-0.148c-0.306,0.034-0.581-0.087-0.87-0.14
	c-0.31-0.056-0.623-0.036-0.942-0.131c-0.328-0.097-0.708-0.003-1.061-0.026c-0.339-0.022-0.677-0.074-1.01-0.142
	c-0.383-0.081-0.717,0.152-1.081,0.142c-0.785-0.024-1.544,0.075-2.306,0.277c-0.62,0.167-1.246,0.299-1.825,0.583
	c-0.703,0.345-1.375,0.754-1.966,1.26c-0.535,0.459-0.904,1.075-1.244,1.687c-0.221,0.401-0.36,0.847-0.553,1.314
	c0,0.103,0,0.26,0,0.406c10.74,0,21.457,0,32.244,0c-1.38-3.934-2.699-7.828-3.945-11.747c-0.006-0.018-0.032-0.035-0.052-0.043
	c-0.021-0.007-0.048-0.001-0.084-0.001c-0.47,0.641-0.956,1.279-1.412,1.938c-0.452,0.658-0.909,1.312-1.488,2.086
	c-0.085-0.175-0.117-0.267-0.169-0.346c-0.551-0.841-1.067-1.708-1.669-2.511c-0.836-1.118-1.611-2.277-2.411-3.42
	C28.565,15.579,28.175,15.054,27.767,14.488z M14.966,12.669c-0.99,0-0.987,0.004-2.033,0.567c-0.591,0.319-0.978,0.842-1.314,1.381
	c-0.308,0.491-0.437,1.105-0.415,1.662c0.035,0.895,0.292,1.752,0.958,2.44c0.708,0.73,1.517,1.177,2.556,1.225
	c0.781,0.036,1.456-0.184,2.115-0.572c0.556-0.33,0.92-0.827,1.283-1.327c0.369-0.508,0.249-1.165,0.47-1.723
	c-0.202-0.543-0.108-1.161-0.428-1.671c-0.344-0.548-0.729-1.072-1.292-1.406C16.267,12.89,15.643,12.565,14.966,12.669z"/>
<path fill-rule="evenodd" clip-rule="evenodd" fill="#707070" stroke="#707070" stroke-miterlimit="10" d="M27.767,14.488
	c0.408,0.566,0.799,1.091,1.172,1.627c0.8,1.143,1.575,2.302,2.411,3.42c0.602,0.803,1.118,1.67,1.669,2.511
	c0.052,0.079,0.084,0.171,0.169,0.346c0.579-0.774,1.036-1.428,1.488-2.086c0.456-0.66,0.942-1.297,1.412-1.938
	c0.036,0,0.062-0.006,0.084,0.001c0.02,0.008,0.046,0.025,0.052,0.043c1.246,3.919,2.565,7.813,3.945,11.747
	c-10.787,0-21.503,0-32.244,0c0-0.146,0-0.304,0-0.406c0.193-0.468,0.333-0.913,0.553-1.314c0.34-0.611,0.709-1.228,1.244-1.687
	c0.591-0.506,1.263-0.915,1.966-1.26c0.58-0.284,1.206-0.416,1.825-0.583c0.762-0.202,1.521-0.302,2.306-0.277
	c0.364,0.011,0.698-0.223,1.081-0.142c0.333,0.067,0.671,0.119,1.01,0.142c0.354,0.023,0.733-0.07,1.061,0.026
	c0.319,0.095,0.632,0.075,0.942,0.131c0.289,0.053,0.564,0.174,0.87,0.14c0.045-0.006,0.103,0.086,0.172,0.148
	C23.221,21.553,25.486,18.03,27.767,14.488z"/>
<path fill-rule="evenodd" clip-rule="evenodd" fill="#707070" stroke="#707070" stroke-miterlimit="10" d="M15.395,12.669
	c0.677-0.104,1.301,0.221,1.901,0.576c0.562,0.333,0.948,0.857,1.292,1.406c0.319,0.511,0.226,1.128,0.428,1.671
	c-0.222,0.558-0.102,1.215-0.47,1.723c-0.363,0.5-0.727,0.997-1.283,1.327c-0.659,0.389-1.334,0.608-2.115,0.572
	c-1.039-0.048-1.849-0.495-2.556-1.225c-0.665-0.688-0.923-1.546-0.958-2.44c-0.022-0.557,0.107-1.17,0.415-1.662
	c0.336-0.539,0.723-1.062,1.314-1.381C14.407,12.673,14.404,12.669,15.395,12.669z"/>
<circle fill="#FFFFFF" stroke="#333333" stroke-width="2" stroke-miterlimit="10" cx="30.628" cy="33.934" r="9.542"/>
<path fill-rule="evenodd" clip-rule="evenodd" fill="#333333" stroke="#333333" stroke-width="0.25" stroke-miterlimit="10" d="
	M29.625,30.637c-0.736,0.714-1.321,1.269-1.892,1.839c-0.459,0.457-0.943,0.753-1.531,0.237c-0.438-0.386-0.376-0.94,0.202-1.536
	c1.095-1.125,2.202-2.239,3.33-3.33c0.651-0.63,1.092-0.639,1.724-0.029c1.157,1.116,2.285,2.266,3.419,3.407
	c0.421,0.423,0.685,0.893,0.21,1.441c-0.396,0.459-0.934,0.417-1.535-0.14c-0.594-0.55-1.16-1.131-1.892-1.85
	c-0.04,0.555-0.085,0.886-0.085,1.217c-0.007,2.315-0.002,4.631-0.01,6.946c-0.001,0.35,0.064,0.777-0.106,1.031
	c-0.206,0.305-0.627,0.62-0.963,0.63c-0.247,0.008-0.637-0.429-0.732-0.739c-0.133-0.433-0.059-0.932-0.061-1.402
	c-0.002-2.197,0.002-4.396-0.003-6.593C29.699,31.471,29.662,31.174,29.625,30.637z"/>
</svg>
