<?xml version="1.0" encoding="utf-8"?>
<!-- Generator: Adobe Illustrator 19.2.0, SVG Export Plug-In . SVG Version: 6.00 Build 0)  -->
<svg version="1.1" id="Layer_1" xmlns="http://www.w3.org/2000/svg" xmlns:xlink="http://www.w3.org/1999/xlink" x="0px" y="0px"
	 viewBox="0 0 48 48" style="enable-background:new 0 0 48 48;" xml:space="preserve">
<style type="text/css">
	.st0{fill:#333333;}
	.st1{fill:#FFFFFF;}
	.st2{fill:#707070;stroke:#707070;stroke-miterlimit:10;}
</style>
<g>
	<path class="st0" d="M37,6H7v36h34V10L37,6z M15,8h18v9l-1,1H16l-1-1V8z M37,40H11V24h3h18h5V40z"/>
	<polygon class="st1" points="14,24 11,24 11,40 37,40 37,24 32,24 	"/>
	<path class="st1" d="M32,18l1-1V8H15v9l1,1H32z M27,9h4v8h-4V9z"/>
	<rect x="27" y="9" class="st0" width="4" height="8"/>
</g>
<path class="st2" d="M26.7,27.1c0.3,0.4,0.6,0.8,0.8,1.2c0.6,0.8,1.1,1.6,1.7,2.4c0.4,0.6,0.8,1.2,1.2,1.8c0,0.1,0.1,0.1,0.1,0.2
	c0.4-0.6,0.7-1,1.1-1.5c0.3-0.5,0.7-0.9,1-1.4c0,0,0,0,0.1,0c0,0,0,0,0,0c0.9,2.8,1.8,5.6,2.8,8.4c-7.7,0-15.3,0-23,0
	c0-0.1,0-0.2,0-0.3c0.1-0.3,0.2-0.7,0.4-0.9c0.2-0.4,0.5-0.9,0.9-1.2c0.4-0.4,0.9-0.7,1.4-0.9c0.4-0.2,0.9-0.3,1.3-0.4
	c0.5-0.1,1.1-0.2,1.6-0.2c0.3,0,0.5-0.2,0.8-0.1c0.2,0,0.5,0.1,0.7,0.1c0.3,0,0.5-0.1,0.8,0c0.2,0.1,0.5,0.1,0.7,0.1
	c0.2,0,0.4,0.1,0.6,0.1c0,0,0.1,0.1,0.1,0.1C23.4,32.1,25,29.6,26.7,27.1z"/>
<path class="st2" d="M17.5,25.8c0.5-0.1,0.9,0.2,1.4,0.4c0.4,0.2,0.7,0.6,0.9,1c0.2,0.4,0.2,0.8,0.3,1.2c-0.2,0.4-0.1,0.9-0.3,1.2
	c-0.3,0.4-0.5,0.7-0.9,0.9c-0.5,0.3-1,0.4-1.5,0.4c-0.7,0-1.3-0.4-1.8-0.9c-0.5-0.5-0.7-1.1-0.7-1.7c0-0.4,0.1-0.8,0.3-1.2
	c0.2-0.4,0.5-0.8,0.9-1C16.8,25.8,16.8,25.8,17.5,25.8z"/>
</svg>
